<svg width="640" height="420" viewBox="0 0 640 420" fill="none" xmlns="http://www.w3.org/2000/svg">
  <rect width="640" height="420" rx="32" fill="#0A1220"/>
  <rect x="30" y="30" width="580" height="360" rx="26" fill="url(#paint0_linear)"/>
  <rect x="56" y="58" width="528" height="64" rx="18" fill="#101B31"/>
  <rect x="56" y="146" width="170" height="214" rx="20" fill="#101B31"/>
  <rect x="246" y="146" width="152" height="102" rx="20" fill="#152645"/>
  <rect x="416" y="146" width="168" height="102" rx="20" fill="#152645"/>
  <rect x="246" y="266" width="338" height="94" rx="20" fill="#101B31"/>
  <rect x="84" y="82" width="142" height="18" rx="9" fill="#D8B4FE" fill-opacity="0.4"/>
  <rect x="274" y="175" width="96" height="12" rx="6" fill="#6EE7F9"/>
  <rect x="274" y="198" width="78" height="10" rx="5" fill="#A5B4FC" fill-opacity="0.45"/>
  <rect x="444" y="175" width="84" height="12" rx="6" fill="#34D399"/>
  <rect x="444" y="198" width="102" height="10" rx="5" fill="#A5B4FC" fill-opacity="0.45"/>
  <rect x="82" y="178" width="118" height="16" rx="8" fill="#A5B4FC" fill-opacity="0.35"/>
  <rect x="82" y="212" width="96" height="12" rx="6" fill="#A5B4FC" fill-opacity="0.2"/>
  <rect x="82" y="242" width="110" height="12" rx="6" fill="#A5B4FC" fill-opacity="0.2"/>
  <rect x="82" y="272" width="92" height="12" rx="6" fill="#A5B4FC" fill-opacity="0.2"/>
  <rect x="82" y="302" width="100" height="12" rx="6" fill="#A5B4FC" fill-opacity="0.2"/>
  <rect x="272" y="290" width="286" height="18" rx="9" fill="#D8B4FE" fill-opacity="0.26"/>
  <rect x="272" y="322" width="240" height="14" rx="7" fill="#A5B4FC" fill-opacity="0.22"/>
  <defs>
    <linearGradient id="paint0_linear" x1="66" y1="52" x2="603" y2="384" gradientUnits="userSpaceOnUse">
      <stop stop-color="#111827"/>
      <stop offset="1" stop-color="#1C2340"/>
    </linearGradient>
  </defs>
</svg>
