<svg width="640" height="420" viewBox="0 0 640 420" fill="none" xmlns="http://www.w3.org/2000/svg">
  <rect width="640" height="420" rx="32" fill="#0B1020"/>
  <rect x="30" y="30" width="580" height="360" rx="26" fill="url(#paint0_linear)"/>
  <rect x="58" y="58" width="160" height="302" rx="22" fill="#111D36"/>
  <rect x="240" y="58" width="160" height="302" rx="22" fill="#111D36"/>
  <rect x="422" y="58" width="160" height="302" rx="22" fill="#111D36"/>
  <rect x="82" y="84" width="84" height="18" rx="9" fill="#FCD34D" fill-opacity="0.8"/>
  <rect x="264" y="84" width="96" height="18" rx="9" fill="#6EE7F9" fill-opacity="0.8"/>
  <rect x="446" y="84" width="88" height="18" rx="9" fill="#34D399" fill-opacity="0.8"/>
  <rect x="78" y="126" width="120" height="76" rx="18" fill="#18294B"/>
  <rect x="260" y="126" width="120" height="96" rx="18" fill="#18294B"/>
  <rect x="442" y="126" width="120" height="68" rx="18" fill="#18294B"/>
  <rect x="78" y="222" width="120" height="88" rx="18" fill="#18294B"/>
  <rect x="260" y="242" width="120" height="68" rx="18" fill="#18294B"/>
  <rect x="442" y="214" width="120" height="96" rx="18" fill="#18294B"/>
  <circle cx="512" cy="340" r="18" fill="#6EE7F9"/>
  <circle cx="542" cy="340" r="18" fill="#A5B4FC" fill-opacity="0.7"/>
  <defs>
    <linearGradient id="paint0_linear" x1="83" y1="48" x2="589" y2="381" gradientUnits="userSpaceOnUse">
      <stop stop-color="#111827"/>
      <stop offset="1" stop-color="#1B2442"/>
    </linearGradient>
  </defs>
</svg>
